<mxfile host="Electron" agent="Mozilla/5.0 (Windows NT 10.0; Win64; x64) AppleWebKit/537.36 (KHTML, like Gecko) draw.io/24.7.8 Chrome/128.0.6613.36 Electron/32.0.1 Safari/537.36" version="24.7.8">
  <diagram name="Seite-1" id="rmcg_aQgjtSpjyozXI4n">
    <mxGraphModel dx="1050" dy="629" grid="1" gridSize="10" guides="1" tooltips="1" connect="1" arrows="1" fold="1" page="1" pageScale="1" pageWidth="1169" pageHeight="827" math="0" shadow="0">
      <root>
        <mxCell id="0" />
        <mxCell id="1" parent="0" />
        <mxCell id="x4445x_2gOHFdpC1yI09-17" value="Mobile OS Platform" style="rounded=0;whiteSpace=wrap;html=1;align=center;verticalAlign=top;fillColor=#F4F7FC;strokeColor=#6c8ebf;" vertex="1" parent="1">
          <mxGeometry x="520" y="440" width="200" height="80" as="geometry" />
        </mxCell>
        <mxCell id="VlHYgpy21l1go6Lui4qg-50" value="gematik" style="rounded=0;whiteSpace=wrap;html=1;align=center;verticalAlign=top;" parent="1" vertex="1">
          <mxGeometry x="800" y="440" width="200" height="80" as="geometry" />
        </mxCell>
        <mxCell id="VlHYgpy21l1go6Lui4qg-1" value="TI 2.0 Dienst Betreiber" style="rounded=0;whiteSpace=wrap;html=1;fillColor=#edfdec;strokeColor=#82b366;align=center;verticalAlign=top;" parent="1" vertex="1">
          <mxGeometry x="520" y="160" width="480" height="240" as="geometry" />
        </mxCell>
        <mxCell id="VlHYgpy21l1go6Lui4qg-2" value="Zero Trust" style="rounded=0;whiteSpace=wrap;html=1;align=center;verticalAlign=top;fillColor=#fff3e5;strokeColor=#d79b00;" parent="1" vertex="1">
          <mxGeometry x="560" y="200" width="200" height="160" as="geometry" />
        </mxCell>
        <mxCell id="x4445x_2gOHFdpC1yI09-5" style="edgeStyle=orthogonalEdgeStyle;rounded=1;orthogonalLoop=1;jettySize=auto;html=1;curved=0;" edge="1" parent="1" target="VlHYgpy21l1go6Lui4qg-54">
          <mxGeometry relative="1" as="geometry">
            <mxPoint x="660" y="360" as="sourcePoint" />
            <Array as="points">
              <mxPoint x="660" y="420" />
              <mxPoint x="900" y="420" />
            </Array>
          </mxGeometry>
        </mxCell>
        <mxCell id="1eVjVkS0zDVgQbxKxKAf-6" value="PDP" style="rounded=0;whiteSpace=wrap;html=1;verticalAlign=middle;fillColor=#ffe6cc;strokeColor=#d79b00;" parent="1" vertex="1">
          <mxGeometry x="595.04" y="300" width="124.96" height="40" as="geometry" />
        </mxCell>
        <mxCell id="VlHYgpy21l1go6Lui4qg-8" value="&lt;div&gt;Resource Server&lt;/div&gt;&lt;div&gt;(Application Backend)&lt;/div&gt;" style="rounded=0;whiteSpace=wrap;html=1;fillColor=#d5e8d4;strokeColor=#82b366;" parent="1" vertex="1">
          <mxGeometry x="810" y="260" width="150" height="40" as="geometry" />
        </mxCell>
        <mxCell id="VlHYgpy21l1go6Lui4qg-22" value="PrimÃ¤rsystem" style="rounded=0;whiteSpace=wrap;html=1;fillColor=#d5e8d4;strokeColor=#82b366;verticalAlign=top;" parent="1" vertex="1">
          <mxGeometry x="240" y="160" width="200" height="160" as="geometry" />
        </mxCell>
        <mxCell id="VlHYgpy21l1go6Lui4qg-30" style="edgeStyle=orthogonalEdgeStyle;rounded=0;orthogonalLoop=1;jettySize=auto;html=1;entryX=0;entryY=0.5;entryDx=0;entryDy=0;" parent="1" source="VlHYgpy21l1go6Lui4qg-29" edge="1">
          <mxGeometry relative="1" as="geometry">
            <mxPoint x="240" y="240" as="targetPoint" />
          </mxGeometry>
        </mxCell>
        <mxCell id="VlHYgpy21l1go6Lui4qg-29" value="Nutzer" style="shape=umlActor;verticalLabelPosition=bottom;verticalAlign=top;html=1;outlineConnect=0;" parent="1" vertex="1">
          <mxGeometry x="160" y="210" width="30" height="60" as="geometry" />
        </mxCell>
        <mxCell id="VlHYgpy21l1go6Lui4qg-54" value="PIP und PAP Service" style="rounded=0;whiteSpace=wrap;html=1;fillColor=#ffe6cc;strokeColor=#d79b00;" parent="1" vertex="1">
          <mxGeometry x="840" y="470" width="120" height="40" as="geometry" />
        </mxCell>
        <mxCell id="x4445x_2gOHFdpC1yI09-3" style="edgeStyle=orthogonalEdgeStyle;rounded=1;orthogonalLoop=1;jettySize=auto;html=1;entryX=0;entryY=0.5;entryDx=0;entryDy=0;curved=0;" edge="1" parent="1" source="W73TImAPQAttKoGehWNf-1" target="VlHYgpy21l1go6Lui4qg-2">
          <mxGeometry relative="1" as="geometry" />
        </mxCell>
        <mxCell id="x4445x_2gOHFdpC1yI09-7" style="edgeStyle=orthogonalEdgeStyle;rounded=0;orthogonalLoop=1;jettySize=auto;html=1;entryX=0.5;entryY=0;entryDx=0;entryDy=0;" edge="1" parent="1" source="W73TImAPQAttKoGehWNf-1" target="x4445x_2gOHFdpC1yI09-1">
          <mxGeometry relative="1" as="geometry" />
        </mxCell>
        <mxCell id="W73TImAPQAttKoGehWNf-1" value="Trust Client" style="rounded=0;whiteSpace=wrap;html=1;fillColor=#ffe6cc;strokeColor=#d79b00;verticalAlign=top;" parent="1" vertex="1">
          <mxGeometry x="280" y="200" width="120" height="40" as="geometry" />
        </mxCell>
        <mxCell id="x4445x_2gOHFdpC1yI09-2" style="edgeStyle=orthogonalEdgeStyle;rounded=0;orthogonalLoop=1;jettySize=auto;html=1;entryX=0;entryY=0.5;entryDx=0;entryDy=0;exitX=1;exitY=0.5;exitDx=0;exitDy=0;" edge="1" parent="1" source="VlHYgpy21l1go6Lui4qg-2" target="VlHYgpy21l1go6Lui4qg-8">
          <mxGeometry relative="1" as="geometry" />
        </mxCell>
        <mxCell id="3iQ7CieG_20oYP9cDW3w-2" value="&lt;div&gt;PEP&lt;/div&gt;" style="rounded=0;whiteSpace=wrap;html=1;fillColor=#ffe6cc;strokeColor=#d79b00;" parent="1" vertex="1">
          <mxGeometry x="595.04" y="230" width="124.96" height="40" as="geometry" />
        </mxCell>
        <mxCell id="x4445x_2gOHFdpC1yI09-1" value="TPM" style="rounded=0;whiteSpace=wrap;html=1;verticalAlign=middle;fillColor=#dae8fc;strokeColor=#6c8ebf;" vertex="1" parent="1">
          <mxGeometry x="302.52" y="265" width="74.96" height="30" as="geometry" />
        </mxCell>
        <mxCell id="x4445x_2gOHFdpC1yI09-8" value="Mobile Client" style="rounded=0;whiteSpace=wrap;html=1;fillColor=#d5e8d4;strokeColor=#82b366;verticalAlign=top;" vertex="1" parent="1">
          <mxGeometry x="240" y="360" width="200" height="160" as="geometry" />
        </mxCell>
        <mxCell id="x4445x_2gOHFdpC1yI09-12" style="edgeStyle=orthogonalEdgeStyle;rounded=1;orthogonalLoop=1;jettySize=auto;html=1;entryX=0;entryY=0.5;entryDx=0;entryDy=0;curved=0;" edge="1" parent="1" source="x4445x_2gOHFdpC1yI09-9" target="VlHYgpy21l1go6Lui4qg-2">
          <mxGeometry relative="1" as="geometry" />
        </mxCell>
        <mxCell id="x4445x_2gOHFdpC1yI09-14" style="edgeStyle=orthogonalEdgeStyle;rounded=1;orthogonalLoop=1;jettySize=auto;html=1;entryX=0.5;entryY=0;entryDx=0;entryDy=0;exitX=1;exitY=0.5;exitDx=0;exitDy=0;curved=0;" edge="1" parent="1" source="x4445x_2gOHFdpC1yI09-9" target="x4445x_2gOHFdpC1yI09-13">
          <mxGeometry relative="1" as="geometry" />
        </mxCell>
        <mxCell id="x4445x_2gOHFdpC1yI09-16" style="edgeStyle=orthogonalEdgeStyle;rounded=0;orthogonalLoop=1;jettySize=auto;html=1;entryX=0.5;entryY=0;entryDx=0;entryDy=0;" edge="1" parent="1" source="x4445x_2gOHFdpC1yI09-9" target="x4445x_2gOHFdpC1yI09-15">
          <mxGeometry relative="1" as="geometry" />
        </mxCell>
        <mxCell id="x4445x_2gOHFdpC1yI09-9" value="Trust Client" style="rounded=0;whiteSpace=wrap;html=1;fillColor=#ffe6cc;strokeColor=#d79b00;verticalAlign=top;" vertex="1" parent="1">
          <mxGeometry x="280" y="400" width="120" height="40" as="geometry" />
        </mxCell>
        <mxCell id="x4445x_2gOHFdpC1yI09-11" style="edgeStyle=orthogonalEdgeStyle;rounded=0;orthogonalLoop=1;jettySize=auto;html=1;entryX=0;entryY=0.5;entryDx=0;entryDy=0;" edge="1" parent="1" source="x4445x_2gOHFdpC1yI09-10" target="x4445x_2gOHFdpC1yI09-8">
          <mxGeometry relative="1" as="geometry" />
        </mxCell>
        <mxCell id="x4445x_2gOHFdpC1yI09-10" value="Nutzer" style="shape=umlActor;verticalLabelPosition=bottom;verticalAlign=top;html=1;outlineConnect=0;" vertex="1" parent="1">
          <mxGeometry x="160" y="410" width="30" height="60" as="geometry" />
        </mxCell>
        <mxCell id="x4445x_2gOHFdpC1yI09-13" value="Mobile OS Attestation" style="rounded=0;whiteSpace=wrap;html=1;verticalAlign=middle;fillColor=#dae8fc;strokeColor=#6c8ebf;" vertex="1" parent="1">
          <mxGeometry x="560" y="470" width="120" height="40" as="geometry" />
        </mxCell>
        <mxCell id="x4445x_2gOHFdpC1yI09-15" value="TEE" style="rounded=0;whiteSpace=wrap;html=1;verticalAlign=middle;fillColor=#dae8fc;strokeColor=#6c8ebf;" vertex="1" parent="1">
          <mxGeometry x="302.52" y="470" width="74.96" height="30" as="geometry" />
        </mxCell>
      </root>
    </mxGraphModel>
  </diagram>
</mxfile>
